<?xml version="1.0" encoding="UTF-8" standalone="no"?>
<!-- Created with Inkscape (http://www.inkscape.org/) -->

<svg
   width="512"
   height="512"
   viewBox="0 0 135.46666 135.46667"
   version="1.1"
   id="svg1"
   xmlns:inkscape="http://www.inkscape.org/namespaces/inkscape"
   xmlns:sodipodi="http://sodipodi.sourceforge.net/DTD/sodipodi-0.dtd"
   xmlns="http://www.w3.org/2000/svg"
   xmlns:svg="http://www.w3.org/2000/svg">
  <sodipodi:namedview
     id="namedview1"
     pagecolor="#ffffff"
     bordercolor="#000000"
     borderopacity="0.25"
     inkscape:showpageshadow="2"
     inkscape:pageopacity="0.0"
     inkscape:pagecheckerboard="0"
     inkscape:deskcolor="#d1d1d1"
     inkscape:document-units="mm" />
  <defs
     id="defs1" />
  <g
     inkscape:label="Livello 1"
     inkscape:groupmode="layer"
     id="layer1">
    <path
       id="path1"
       style="color:currentColor;fill:currentColor;stroke-linecap:round;stroke-linejoin:round;stroke-miterlimit:20;-inkscape-stroke:none"
       d="m 17.048572,54.220463 a 4.6306729,4.6306729 0 0 0 -4.620907,4.332035 c -0.783019,12.142059 0.712825,18.481983 3.713469,29.650904 l -2.67994,0.269234 A 4.6306729,4.6306729 0 0 0 9.2971069,92.91991 c -0.2915401,8.50242 -0.067528,17.89212 4.9764401,27.26965 a 4.6306729,4.6306729 0 0 0 4.077788,2.43758 h 72.332019 a 4.6306729,4.6306729 0 0 0 2.814815,-0.95343 c 16.034501,-12.268 27.670241,-26.683065 32.501891,-43.890344 a 4.6306729,4.6306729 0 0 0 -4.45709,-5.880778 H 87.708858 a 4.6306729,4.6306729 0 0 0 -2.099613,0.501778 l -21.595581,10.98796 -7.962822,0.800468 V 58.851705 a 4.6306729,4.6306729 0 0 0 -4.629175,-4.631242 z m 4.539258,9.2599 h 25.203112 v 5.544881 H 34.136934 a 4.6302099,4.6302099 0 0 0 -4.631241,4.631242 4.6302099,4.6302099 0 0 0 4.631241,4.630725 h 12.654008 v 6.103504 L 25.509554,87.146619 C 22.922079,77.640387 21.450471,71.727208 21.58783,63.480363 Z m 67.232588,17.681608 h 26.238192 c -0.941,2.338789 -2.04552,4.624311 -3.29799,6.86263 a 4.6302099,4.6302099 0 0 0 -0.41083,-0.02067 H 94.06661 a 4.6302099,4.6302099 0 0 0 -4.631242,4.630725 4.6302099,4.6302099 0 0 0 4.631242,4.629175 h 11.45098 C 101.01326,102.92887 95.471583,108.27781 88.980615,113.36517 H 21.404378 c -2.237679,-5.19934 -2.895793,-10.47009 -2.892846,-16.093588 l 47.29117,-4.752165 a 4.6306729,4.6306729 0 0 0 1.636592,-0.480591 z" />
  </g>
</svg>
