<?xml version="1.0" encoding="UTF-8" standalone="no"?>
<!-- Created with Inkscape (http://www.inkscape.org/) -->

<svg
   width="819.76996"
   height="460.94281"
   viewBox="0 0 211.30771 118.81476"
   version="1.1"
   id="svg1"
   inkscape:version="1.3.2 (091e20e, 2023-11-25, custom)"
   sodipodi:docname="alis-logo.svg"
   inkscape:export-filename="alis-logo-slim.svg"
   inkscape:export-xdpi="96"
   inkscape:export-ydpi="96"
   xmlns:inkscape="http://www.inkscape.org/namespaces/inkscape"
   xmlns:sodipodi="http://sodipodi.sourceforge.net/DTD/sodipodi-0.dtd"
   xmlns="http://www.w3.org/2000/svg"
   xmlns:svg="http://www.w3.org/2000/svg">
  <sodipodi:namedview
     id="namedview1"
     pagecolor="#ffffff"
     bordercolor="#000000"
     borderopacity="0.25"
     inkscape:showpageshadow="2"
     inkscape:pageopacity="0.0"
     inkscape:pagecheckerboard="0"
     inkscape:deskcolor="#d1d1d1"
     inkscape:document-units="mm"
     inkscape:zoom="0.51213161"
     inkscape:cx="546.73446"
     inkscape:cy="450.07962"
     inkscape:window-width="1920"
     inkscape:window-height="1009"
     inkscape:window-x="-8"
     inkscape:window-y="-8"
     inkscape:window-maximized="1"
     inkscape:current-layer="g1"
     inkscape:clip-to-page="false" />
  <defs
     id="defs1" />
  <g
     inkscape:label="Livello 1"
     inkscape:groupmode="layer"
     id="layer1"
     transform="translate(-105.90139,-145.35938)">
    <g
       id="g1"
       transform="matrix(7.8182291,0,0,7.8182291,-518.78928,-473.43697)">
      <path
         id="text1-99-7-3-7-56-6"
         style="-inkscape-font-specification:EUR42;fill:#bea689;fill-opacity:1;stroke:none;stroke-width:0.356543;stroke-linecap:round;stroke-linejoin:round;stroke-miterlimit:20;stroke-opacity:1"
         d="m 89.516005,80.565857 -5.053927,10.706665 c -0.528286,1.126991 -1.356557,1.654549 -2.043318,1.654549 v 0.03495 h 3.82132 v -0.03495 c -0.950899,0 -1.408962,-0.632849 -1.039169,-1.407654 l 1.707984,-3.627849 h 4.490135 l 1.742981,3.82131 c 0.299352,0.66915 -0.08736,1.214193 -1.179189,1.214193 v 0.03495 h 4.613581 v -0.03495 c -0.89808,0 -1.655485,-0.527377 -2.113332,-1.531103 l -2.667912,-5.883045 0.09766,-2.428395 4.718604,9.877551 h 0.03494 l 4.331667,-9.825959 0.40535,8.805226 c 0.0353,0.545883 -0.43983,0.985725 -0.98573,0.985725 v 0.03495 h 4.01478 v -0.03495 c -1.00373,0 -1.67358,-0.633001 -1.72641,-1.689554 l -0.45694,-8.68178 c -0.0528,-1.144598 0.68745,-1.884857 1.7264,-1.884857 v -0.03501 h -2.64212 l -4.401633,9.895978 -4.755451,-9.895973 h -2.573953 l -0.03138,-0.07001 z m 0.08293,0.106863 c 0.884238,0.01704 1.623846,0.753605 1.571641,2.041472 l -0.05341,1.306319 z m -0.383238,2.358377 1.884861,4.191648 h -3.874735 z" />
    </g>
  </g>
</svg>
